<?xml version="1.0" encoding="UTF-8"?>
<svg id="_레이어_1" data-name="레이어 1" xmlns="http://www.w3.org/2000/svg" width="1170" height="285" viewBox="0 0 1170 285">
  <defs>
    <style>
      .cls-1 {
        fill: #fdfdf9;
      }

      .cls-2 {
        fill: #f5bacd;
      }

      .cls-3 {
        fill: #5f5251;
      }
    </style>
  </defs>
  <path class="cls-1" d="M114.88,195.82l7.24-13.14c.92-1.67,3.06-2.02,4.61-.9,11.05,8.06,24.03,9.7,35.51,9.7,17.6,0,26.76-7.22,26.76-17.96s-15.66-14.95-28.87-18.48c-21.82-5.81-45.23-13.02-45.23-39.6,0-22.53,17.43-36.96,47.34-36.96,12.05,0,27.03,2.17,40.9,9.55,1.53.81,2.1,2.79,1.29,4.32l-7.06,13.38c-.82,1.56-2.74,2.03-4.29,1.18-10.44-5.77-22.12-6.95-30.84-6.95-15.31,0-24.64,5.98-24.64,15.49,0,10.39,13.56,14.79,27.64,18.3,22.17,5.64,46.47,12.32,46.47,39.78,0,23.59-17.25,39.43-49.46,39.43-15.86,0-31.71-3.01-46.37-12.93-1.35-.91-1.78-2.78-.99-4.2Z"/>
  <path class="cls-1" d="M384.02,80.58h12.19c1.1,0,2.13.58,2.69,1.53l38.48,64.72c1.21,2.04,4.16,2.04,5.37,0l38.81-64.74c.57-.94,1.58-1.52,2.68-1.52h12.38c1.65,0,3.01,1.28,3.12,2.92l8.38,123.99c.12,1.81-1.31,3.34-3.12,3.34h-15.84c-1.67,0-3.05-1.32-3.13-2.99l-3.45-75.86c-.14-3.07-4.16-4.12-5.78-1.51l-33.75,54.11c-1.22,1.96-4.08,1.96-5.31,0l-33.91-54.15c-1.63-2.6-5.64-1.55-5.78,1.52l-3.46,75.89c-.08,1.67-1.45,2.99-3.13,2.99h-15.84c-1.81,0-3.24-1.53-3.12-3.34l8.38-123.99c.11-1.64,1.48-2.92,3.12-2.92Z"/>
  <path class="cls-1" d="M532.73,80.58h15.92c1.73,0,3.13,1.4,3.13,3.13v123.99c0,1.73-1.4,3.13-3.13,3.13h-15.92c-1.73,0-3.13-1.4-3.13-3.13v-123.99c0-1.73,1.4-3.13,3.13-3.13Z"/>
  <path class="cls-2" d="M579.52,80.58h15.92c1.73,0,3.13,1.4,3.13,3.13v102.52c0,1.73,1.4,3.13,3.13,3.13h55.87c1.73,0,3.13,1.4,3.13,3.13v15.22c0,1.73-1.4,3.13-3.13,3.13h-78.05c-1.73,0-3.13-1.4-3.13-3.13v-123.99c0-1.73,1.4-3.13,3.13-3.13Z"/>
  <path class="cls-2" d="M813.64,80.58h11.56c.63,0,1.25.19,1.77.55l67.88,46.6c2.08,1.43,4.9-.06,4.9-2.58v-41.44c0-1.73,1.4-3.13,3.13-3.13h15.92c1.73,0,3.13,1.4,3.13,3.13v123.99c0,1.73-1.4,3.13-3.13,3.13h-15.92c-1.73,0-3.13-1.4-3.13-3.13v-48.91c0-1.03-.51-2-1.36-2.58l-60.81-41.66c-2.08-1.42-4.9.06-4.9,2.58v90.56c0,1.73-1.4,3.13-3.13,3.13h-15.92c-1.73,0-3.13-1.4-3.13-3.13v-123.99c0-1.73,1.4-3.13,3.13-3.13Z"/>
  <path class="cls-2" d="M942.16,83.71c0-1.73,1.4-3.13,3.13-3.13h43.69c41.37,0,66.53,26.58,66.53,65.13s-25.17,65.12-66.53,65.12h-43.69c-1.73,0-3.13-1.4-3.13-3.13v-123.99ZM988.98,189.72c27.81,0,43.3-17.6,43.3-44s-15.49-44-43.3-44h-21.51c-1.73,0-3.13,1.4-3.13,3.13v81.75c0,1.73,1.4,3.13,3.13,3.13h21.51Z"/>
  <path class="cls-1" d="M312.22,107.24s5.3-5.77,5.3-16.4c0-11.99-5.38-19.96-11.55-19.78-9.61.29-9.55,14.33-8.14,33.95-2.13-.25-3.98-.27-6.85-.27s-4.71.02-6.84.27c1.41-19.63,1.47-33.67-8.14-33.95-6.17-.18-11.55,7.79-11.55,19.78,0,10.63,5.3,16.4,5.3,16.4-42.95,11.54-58.87,74.37-25.85,95.2,13.39,8.45,30.64,10.29,47.09,10.29s33.7-1.84,47.09-10.29c33.02-20.83,17.1-83.66-25.85-95.2Z"/>
  <path class="cls-3" d="M253.46,161.42c-3.33-11,9.11-17.32,14.2-9.47,7.96,12.28-9.76,24.13-14.2,9.47Z"/>
  <path class="cls-3" d="M314.3,151.95c5.09-7.85,17.53-1.53,14.2,9.47-4.44,14.67-22.16,2.81-14.2-9.47Z"/>
  <path class="cls-2" d="M735.2,78.44c-35.65,0-56.41,23.07-56.41,61.15v68.11c0,1.77,1.44,3.09,3.2,3.09h15.9c1.77,0,3.09-1.32,3.09-3.09v-29.25c0-1.77,1.44-3.2,3.2-3.2h61.82c1.77,0,3.09,1.44,3.09,3.2v29.25c0,1.77,1.44,3.09,3.2,3.09h15.9c1.77,0,3.09-1.32,3.09-3.09v-68.11c0-38.08-20.75-61.15-56.08-61.15ZM769.09,150.52c0,1.66-1.32,3.09-3.09,3.09h-61.82c-1.77,0-3.2-1.44-3.2-3.09v-10.93c0-24.84,12.47-39.63,34.22-39.63s33.89,14.79,33.89,39.63v10.93Z"/>
</svg>